<?xml version="1.0" encoding="UTF-8"?>
<svg width="20px" height="20px" viewBox="0 0 20 20" version="1.1" xmlns="http://www.w3.org/2000/svg" xmlns:xlink="http://www.w3.org/1999/xlink">
    <title>放大(1)@2x</title>
    <g id="页面-1" stroke="none" stroke-width="1" fill="none" fill-rule="evenodd">
        <g id="01预测分析" transform="translate(-578, -220)" fill="#596BDA" fill-rule="nonzero">
            <g id="放大(1)" transform="translate(588, 230) scale(-1, 1) translate(-588, -230)translate(578, 220)">
                <path d="M19.3246753,20 L0.675324675,20 C0.303896104,20 0,19.6961039 0,19.3246753 L0,0.675324675 C0,0.303896104 0.303896104,0 0.675324675,0 L19.3246753,0 C19.6961039,0 20,0.303896104 20,0.675324675 L20,19.3246753 C20,19.6961039 19.6987013,20 19.3246753,20 Z M0.833766234,19.1688312 L19.1714286,19.1688312 L19.1714286,0.831168831 L0.833766234,0.831168831 L0.833766234,19.1688312 Z" id="形状"></path>
                <path d="M3.23376623,3.13766234 L7.54805195,3.19220779 C7.77662338,3.19480519 7.96103896,3.38441558 7.95846866,3.61298701 C7.95584416,3.84155844 7.76623377,4.02597403 7.53766234,4.02337662 L4.05454545,3.97922078 L4.01038961,7.46233766 C4.00779221,7.69090909 3.81818182,7.87532468 3.58961039,7.87275438 C3.36103896,7.87012987 3.17662338,7.68051948 3.17919367,7.45194805 L3.23376623,3.13766234 Z" id="路径"></path>
                <path d="M4.4961039,3.86753247 L9.18181818,8.66233766 C9.34285714,8.82597403 9.34025974,9.09090909 9.17402597,9.24935065 C9.01038961,9.41038961 8.74545455,9.40779221 8.58701299,9.24155844 L3.9012987,4.44935065 C3.74025974,4.28571429 3.74285714,4.02077922 3.90909091,3.86233766 C4.07272727,3.7012987 4.33506494,3.7038961 4.4961039,3.86753247 L4.4961039,3.86753247 Z M16.3194805,11.9895837 C16.5480519,11.9895837 16.7350649,12.1766234 16.7324943,12.4077922 L16.7194805,16.7194805 L12.4051948,16.7064935 C12.1766234,16.7064935 11.9896104,16.5194805 11.9921811,16.2883117 C11.9921811,16.0597403 12.1792208,15.8727273 12.4103896,15.8753247 L15.8935065,15.8857143 L15.9038961,12.4025974 C15.9038961,12.174026 16.0909091,11.987013 16.3194805,11.9895837 Z" id="形状"></path>
                <path d="M11.3350649,10.7272727 L16.4337662,15.8103896 L15.8467532,16.4 L10.7506494,11.3142857 C10.587013,11.1532468 10.587013,10.8883117 10.7506494,10.7272727 C10.9116883,10.5636364 11.174026,10.5636364 11.3350649,10.7272727 Z" id="路径"></path>
            </g>
        </g>
    </g>
</svg>