<?xml version="1.0" encoding="UTF-8"?><svg version="1.1" width="13px" height="11px" viewBox="0 0 13.0 11.0" xmlns="http://www.w3.org/2000/svg" xmlns:xlink="http://www.w3.org/1999/xlink"><defs><clipPath id="i0"><path d="M1920,0 L1920,1080 L0,1080 L0,0 L1920,0 Z"></path></clipPath><clipPath id="i1"><path d="M4.70710678,0 L5.41421356,0.707106781 L1.41410678,4.70710678 L5.41421356,8.70710678 L4.70710678,9.41421356 L0,4.70710678 L4.70710678,0 Z"></path></clipPath><clipPath id="i2"><path d="M11,0 L11,1 L0,1 L0,0 L11,0 Z"></path></clipPath></defs><g transform="translate(-19.0 -183.0)"><g clip-path="url(#i0)"><g transform="translate(19.792893218813447 181.0)"><g transform="translate(0.0 2.7928932188135605)"><g clip-path="url(#i1)"><polygon points="0,0 5.41421356,0 5.41421356,9.41421356 0,9.41421356 0,0" stroke="none" fill="#D8F0FF"></polygon></g><g transform="translate(0.7071067811866669 4.20710678118644)"><g clip-path="url(#i2)"><polygon points="0,0 11,0 11,1 0,1 0,0" stroke="none" fill="#D8F0FF"></polygon></g></g></g></g></g></g></svg>