<?xml version="1.0" encoding="UTF-8"?><svg version="1.1" width="16px" height="17px" viewBox="0 0 16.0 17.0" xmlns="http://www.w3.org/2000/svg" xmlns:xlink="http://www.w3.org/1999/xlink"><defs><clipPath id="i0"><path d="M1920,0 L1920,1080 L0,1080 L0,0 L1920,0 Z"></path></clipPath><clipPath id="i1"><path d="M8.37621359,0.121780584 L15.7338327,5.42969059 C15.9009969,5.55046153 16,5.74415111 16,5.95037784 L16,16.3574491 C16.0001711,16.7123386 15.7125942,16.9999155 15.3577047,16.9999155 L0.642466407,16.9999155 C0.287576939,16.9999155 0,16.7123386 0,16.3574491 L0,5.95037784 C0,5.74415829 0.0991703678,5.5502708 0.266167101,5.42969059 L7.62378626,0.121780584 C7.84831507,-0.0405935282 8.15168478,-0.0405935282 8.37621359,0.121780584 Z M8.00008556,1.43497438 L1.28493281,6.27889039 L1.28493281,15.7149827 L14.7152383,15.7149827 L14.7152383,6.27889039 L8.00008556,1.43497438 Z"></path></clipPath><clipPath id="i2"><path d="M1.03325172,0.132299324 C2.32743358,1.12348917 4.13767817,1.12657218 5.43562817,0.140520701 C5.71823802,-0.0739202322 6.12656645,-0.0239068515 6.34134994,0.257504054 C6.55630471,0.539257517 6.50903179,0.936795382 6.22779216,1.15243527 C5.34262383,1.82504672 4.28771831,2.16075298 3.23503942,2.16075298 C2.18081901,2.16075298 1.12899651,1.82401905 0.251878283,1.15243527 C-0.0298751796,0.936624103 -0.0833141343,0.533434041 0.132497029,0.251680578 C0.348308192,-0.0299016061 0.751498254,-0.083169282 1.03325172,0.132299324 Z"></path></clipPath></defs><g transform="translate(-20.0 -22.0)"><g clip-path="url(#i0)"><g transform="translate(19.99999999999997 21.99999999999999)"><g clip-path="url(#i1)"><polygon points="0,1.76247905e-15 16.0000001,1.76247905e-15 16.0000001,16.9999155 0,16.9999155 0,1.76247905e-15" stroke="none" fill="#FFFFFF"></polygon></g><g transform="translate(4.549406260995497 11.529366801004958)"><g clip-path="url(#i2)"><polygon points="2.22044605e-16,-6.10622664e-16 6.47551618,-6.10622664e-16 6.47551618,2.16075298 2.22044605e-16,2.16075298 2.22044605e-16,-6.10622664e-16" stroke="none" fill="#FFFFFF"></polygon></g></g></g></g></g></svg>