<?xml version="1.0" encoding="UTF-8"?>
<svg width="14px" height="14px" viewBox="0 0 14 14" version="1.1" xmlns="http://www.w3.org/2000/svg" xmlns:xlink="http://www.w3.org/1999/xlink">
    <title>编组 5</title>
    <g id="页面-1" stroke="none" stroke-width="1" fill="none" fill-rule="evenodd">
        <g id="切图" transform="translate(-633, -126)" fill="#ff5e60" fill-rule="nonzero">
            <g id="编组-5" transform="translate(633, 126)">
                <rect id="矩形" opacity="0" x="0" y="0" width="14" height="14"></rect>
                <path d="M7.23437695,0.101664062 L11.9814297,5.54136133 C12.0583267,5.62917657 12.0767326,5.75386062 12.0284892,5.86014911 C11.9802459,5.9664376 11.8742774,6.03466932 11.7575527,6.03460156 L9.42425586,6.03460156 C9.27587667,6.03332501 9.14982822,6.14287039 9.13040625,6.28997852 C8.95548828,7.55632227 7.89903516,13.1569375 2.89661914,13.9860137 C2.76216014,14.0119612 2.62736668,13.9427242 2.57013825,13.818316 C2.51290983,13.6939078 2.54804651,13.546502 2.65524219,13.4612871 C3.51230469,12.7896289 4.6317168,11.4882988 4.94655273,9.17248828 C5.06743122,8.23170815 5.12586965,7.28395507 5.12148437,6.33545117 C5.12152796,6.17006203 4.98948033,6.0349119 4.82413477,6.03111523 L2.25996094,6.03111523 C2.1432283,6.03119307 2.03724824,5.96296132 1.98900031,5.8566662 C1.94075238,5.75037108 1.95916273,5.62567784 2.03607031,5.53786133 L6.78662305,0.101664062 C6.84308808,0.0370669906 6.92470325,7.8358821e-06 7.0105,7.8358821e-06 C7.09629675,7.8358821e-06 7.17791192,0.0370669906 7.23437695,0.101664062 Z" id="路径"></path>
            </g>
        </g>
    </g>
</svg>