<?xml version="1.0" encoding="UTF-8"?>
<svg width="16px" height="16px" viewBox="0 0 16 16" version="1.1" xmlns="http://www.w3.org/2000/svg" xmlns:xlink="http://www.w3.org/1999/xlink">
    <title>Slice</title>
    <defs>
        <linearGradient x1="50%" y1="1.23259516e-30%" x2="50%" y2="100%" id="linearGradient-1">
            <stop stop-color="#49ECFF" offset="0%"></stop>
            <stop stop-color="#93FEFF" offset="38.5772918%"></stop>
            <stop stop-color="#62B6F1" offset="75.4386849%"></stop>
            <stop stop-color="#0994F6" offset="100%"></stop>
        </linearGradient>
        <linearGradient x1="50%" y1="0%" x2="50%" y2="100%" id="linearGradient-2">
            <stop stop-color="#FFFFFF" stop-opacity="0.3" offset="0%"></stop>
            <stop stop-color="#FFFFFF" stop-opacity="0.5" offset="100%"></stop>
        </linearGradient>
        <path d="M8,0.5 C11.3137085,0.5 14,3.1862915 14,6.5 C14,9.15390579 12.2769593,11.4053739 9.88853154,12.1967505 L8.28223051,15.0088368 C8.97573627,15.0528481 9.5,15.256016 9.5,15.5 C9.5,15.7761424 8.82842712,16 8,16 C7.17157288,16 6.5,15.7761424 6.5,15.5 C6.5,15.2558995 7.02476457,15.052654 7.71876317,15.0087739 L6.11246037,12.1970791 C3.72351777,11.4059972 2,9.15427316 2,6.5 C2,3.1862915 4.6862915,0.5 8,0.5 Z M8,2 C5.51471863,2 3.5,4.01471863 3.5,6.5 C3.5,8.98528137 5.51471863,11 8,11 C10.4852814,11 12.5,8.98528137 12.5,6.5 C12.5,4.01471863 10.4852814,2 8,2 Z M8,4.5 C9.1045695,4.5 10,5.3954305 10,6.5 C10,7.6045695 9.1045695,8.5 8,8.5 C6.8954305,8.5 6,7.6045695 6,6.5 C6,5.3954305 6.8954305,4.5 8,4.5 Z" id="path-3"></path>
        <filter x="-50.0%" y="-38.7%" width="200.0%" height="177.4%" filterUnits="objectBoundingBox" id="filter-4">
            <feOffset dx="0" dy="0" in="SourceAlpha" result="shadowOffsetOuter1"></feOffset>
            <feGaussianBlur stdDeviation="2" in="shadowOffsetOuter1" result="shadowBlurOuter1"></feGaussianBlur>
            <feComposite in="shadowBlurOuter1" in2="SourceAlpha" operator="out" result="shadowBlurOuter1"></feComposite>
            <feColorMatrix values="0 0 0 0 0.129411765   0 0 0 0 0.490196078   0 0 0 0 0.88627451  0 0 0 0.5 0" type="matrix" in="shadowBlurOuter1" result="shadowMatrixOuter1"></feColorMatrix>
            <feOffset dx="0" dy="1" in="SourceAlpha" result="shadowOffsetOuter2"></feOffset>
            <feComposite in="shadowOffsetOuter2" in2="SourceAlpha" operator="out" result="shadowOffsetOuter2"></feComposite>
            <feColorMatrix values="0 0 0 0 0.0823529412   0 0 0 0 0.239215686   0 0 0 0 0.6  0 0 0 0.5 0" type="matrix" in="shadowOffsetOuter2" result="shadowMatrixOuter2"></feColorMatrix>
            <feOffset dx="0" dy="2" in="SourceAlpha" result="shadowOffsetOuter3"></feOffset>
            <feComposite in="shadowOffsetOuter3" in2="SourceAlpha" operator="out" result="shadowOffsetOuter3"></feComposite>
            <feColorMatrix values="0 0 0 0 0.0823529412   0 0 0 0 0.239215686   0 0 0 0 0.6  0 0 0 0.5 0" type="matrix" in="shadowOffsetOuter3" result="shadowMatrixOuter3"></feColorMatrix>
            <feMerge>
                <feMergeNode in="shadowMatrixOuter1"></feMergeNode>
                <feMergeNode in="shadowMatrixOuter2"></feMergeNode>
                <feMergeNode in="shadowMatrixOuter3"></feMergeNode>
            </feMerge>
        </filter>
        <filter x="-50.0%" y="-38.7%" width="200.0%" height="177.4%" filterUnits="objectBoundingBox" id="filter-5">
            <feGaussianBlur stdDeviation="2" in="SourceAlpha" result="shadowBlurInner1"></feGaussianBlur>
            <feOffset dx="0" dy="0" in="shadowBlurInner1" result="shadowOffsetInner1"></feOffset>
            <feComposite in="shadowOffsetInner1" in2="SourceAlpha" operator="arithmetic" k2="-1" k3="1" result="shadowInnerInner1"></feComposite>
            <feColorMatrix values="0 0 0 0 0.929411765   0 0 0 0 0.980392157   0 0 0 0 1  0 0 0 0.5 0" type="matrix" in="shadowInnerInner1"></feColorMatrix>
        </filter>
    </defs>
    <g id="v0.2" stroke="none" stroke-width="1" fill="none" fill-rule="evenodd">
        <g id="006经济对比分析1-1时间序列" transform="translate(-30.000000, -155.000000)" fill-rule="nonzero">
            <g id="Combined-Shape" transform="translate(30.000000, 155.000000)">
                <use fill="black" fill-opacity="1" filter="url(#filter-4)" xlink:href="#path-3"></use>
                <use fill="#DDEDFF" xlink:href="#path-3"></use>
                <use fill-opacity="0.85" fill="url(#linearGradient-1)" xlink:href="#path-3"></use>
                <use fill="black" fill-opacity="1" filter="url(#filter-5)" xlink:href="#path-3"></use>
                <path stroke="url(#linearGradient-2)" stroke-width="0.25" d="M8,0.625 C9.62233645,0.625 11.0910865,1.28258177 12.1542523,2.34574766 C13.2174182,3.40891355 13.875,4.87766355 13.875,6.5 C13.875,7.78220284 13.4642738,8.96848416 12.7671509,9.93440068 C12.0423294,10.9386956 11.0079945,11.7048454 9.80389339,12.092906 L8.07163027,15.125509 C8.42186485,15.1314017 8.73972415,15.1776699 8.98041319,15.251988 C8.66922891,15.8229131 8.3524764,15.875 8,15.875 C7.65163686,15.875 7.3319193,15.834589 7.08244387,15.7662174 C7.22285064,15.0923238 7.55504465,15.147113 7.92814566,15.1232895 L6.19708812,12.0932222 C4.99273402,11.7053153 3.95815336,10.9391802 3.23314958,9.93481697 C2.53584425,8.96882501 2.125,7.78238705 2.125,6.5 C2.125,4.87766355 2.78258177,3.40891355 3.84574766,2.34574766 C4.90891355,1.28258177 6.37766355,0.625 8,0.625 Z M8,1.875 C6.72284152,1.875 5.56659152,2.39267076 4.72963114,3.22963114 C3.89267076,4.06659152 3.375,5.22284152 3.375,6.5 C3.375,7.77715848 3.89267076,8.93340848 4.72963114,9.77036886 C5.56659152,10.6073292 6.72284152,11.125 8,11.125 C9.27715848,11.125 10.4334085,10.6073292 11.2703689,9.77036886 C12.1073292,8.93340848 12.625,7.77715848 12.625,6.5 C12.625,5.22284152 12.1073292,4.06659152 11.2703689,3.22963114 C10.4334085,2.39267076 9.27715848,1.875 8,1.875 Z M8,4.625 C8.51776695,4.625 8.98651695,4.83486652 9.32582521,5.17417479 C9.66513348,5.51348305 9.875,5.98223305 9.875,6.5 C9.875,7.01776695 9.66513348,7.48651695 9.32582521,7.82582521 C8.98651695,8.16513348 8.51776695,8.375 8,8.375 C7.48223305,8.375 7.01348305,8.16513348 6.67417479,7.82582521 C6.33486652,7.48651695 6.125,7.01776695 6.125,6.5 C6.125,5.98223305 6.33486652,5.51348305 6.67417479,5.17417479 C7.01348305,4.83486652 7.48223305,4.625 8,4.625 Z" stroke-linejoin="square"></path>
            </g>
        </g>
    </g>
</svg>