<?xml version="1.0" encoding="UTF-8"?><svg version="1.1" width="32px" height="32px" viewBox="0 0 32.0 32.0" xmlns="http://www.w3.org/2000/svg" xmlns:xlink="http://www.w3.org/1999/xlink"><defs><clipPath id="i0"><path d="M2924,0 L2924,5595 L0,5595 L0,0 L2924,0 Z"></path></clipPath><filter id="i1" x="-11.7647059%" y="-11.7647059%" filterUnits="userSpaceOnUse" width="111.764706%" height="111.764706%"><feDropShadow stdDeviation="0" dx="-2" dy="-2" flood-color="#465973"></feDropShadow></filter><clipPath id="i2"><path d="M16,0 C24.836556,0 32,7.163444 32,16 C32,24.836556 24.836556,32 16,32 C7.163444,32 0,24.836556 0,16 C0,7.163444 7.163444,0 16,0 Z M10.4365234,14.828776 C9.87402344,14.828776 9.44921875,14.9781901 9.16210938,15.2770182 C8.88671875,15.5582682 8.74902344,15.9479167 8.74902344,16.4459635 L8.74023438,21.8863932 C8.74023438,22.9820964 9.35253906,23.5299479 10.5771484,23.5299479 L21.9414062,23.5299479 C23.0722656,23.5299479 23.6376953,22.938151 23.6376953,21.7545573 L23.6376953,16.3229167 C23.6376953,15.8776042 23.4970703,15.5201823 23.2158203,15.250651 C22.9287109,14.9752604 22.5185547,14.8375651 21.9853516,14.8375651 L10.4365234,14.828776 Z M22.0117188,21.0250651 L22.0205078,21.4996745 C22.0263672,21.8453776 21.8300781,22.0182292 21.4316406,22.0182292 L10.9550781,22.0182292 C10.5859375,22.0182292 10.3955078,21.8629557 10.3837891,21.5524089 L10.375,21.0250651 L22.0117188,21.0250651 Z M22.0117188,18.7311198 L22.0117188,19.6188151 L10.375,19.6188151 L10.375,18.7311198 L22.0117188,18.7311198 Z M21.3613281,16.3053385 C21.8066406,16.3053385 22.0263672,16.4781901 22.0205078,16.8238932 L22.0117188,17.3248698 L10.375,17.3248698 L10.3837891,16.8063151 C10.3896484,16.6539714 10.4365234,16.5338542 10.5244141,16.4459635 C10.6240234,16.3522135 10.8554688,16.3053385 11.21875,16.3053385 L21.3613281,16.3053385 Z M16.8085938,8.54459635 L15.1914062,8.54459635 L15.1914062,12.2096354 L13.1435547,12.7281901 C12.6513672,12.851237 11.8017578,12.9860026 10.5947266,13.132487 C9.70410156,13.2379557 8.8515625,13.2965495 8.03710938,13.3082682 L8.04589844,14.7936198 C10.4306641,14.7115885 12.5019531,14.4420573 14.2597656,13.985026 L17.7490234,13.0621745 C19.1904297,12.6813151 20.6582031,12.4440104 22.1523438,12.3502604 C22.3691406,12.6959635 22.5976562,12.9479167 22.8378906,13.1061198 C23.1015625,13.2701823 23.4648438,13.3785807 23.9277344,13.4313151 L23.9277344,11.7965495 C23.7871094,11.773112 23.6904297,11.7320964 23.6376953,11.6735026 C23.5615234,11.585612 23.5117188,11.4010417 23.4882812,11.1197917 L23.2333984,8.6500651 L21.6074219,8.6500651 L21.8623047,10.882487 C20.2978516,11.023112 18.6132812,11.3102214 16.8085938,11.7438151 L16.8085938,8.54459635 Z M10.9111328,8.6500651 L9.28515625,8.6500651 L9.07421875,10.460612 C9.04492188,10.7535807 8.99511719,10.9498698 8.92480469,11.0494792 C8.86621094,11.125651 8.7578125,11.1901042 8.59960938,11.2428385 L8.59960938,12.851237 C9.78320312,12.7692057 10.4541016,12.1246745 10.6123047,10.9176432 L10.9111328,8.6500651 Z"></path></clipPath></defs><g transform="translate(-2510.0 -1837.0)"><g clip-path="url(#i0)"><g transform="translate(2510.0 1837.0)"><g filter="url(#i1)"><g clip-path="url(#i2)"><polygon points="0,0 32,0 32,32 0,32 0,0" stroke="none" fill="#D8F0FF"></polygon></g></g></g></g></g></svg>