<?xml version="1.0" encoding="UTF-8"?><svg version="1.1" width="32px" height="32px" viewBox="0 0 32.0 32.0" xmlns="http://www.w3.org/2000/svg" xmlns:xlink="http://www.w3.org/1999/xlink"><defs><clipPath id="i0"><path d="M2924,0 L2924,5595 L0,5595 L0,0 L2924,0 Z"></path></clipPath><filter id="i1" x="-11.7647059%" y="-11.7647059%" filterUnits="userSpaceOnUse" width="111.764706%" height="111.764706%"><feDropShadow stdDeviation="0" dx="-2" dy="-2" flood-color="#465973"></feDropShadow></filter><clipPath id="i2"><path d="M16,0 C24.836556,0 32,7.163444 32,16 C32,24.836556 24.836556,32 16,32 C7.163444,32 0,24.836556 0,16 C0,7.163444 7.163444,0 16,0 Z M21.3173828,8.55338542 L10.4628906,8.55338542 C10.0585938,8.55338542 9.72460938,8.60026042 9.4609375,8.69401042 C9.21484375,8.78190104 8.97167969,8.94596354 8.73144531,9.18619792 C8.30371094,9.61979167 8.08984375,10.2555339 8.08984375,11.0934245 L8.08984375,20.8932292 C8.08984375,21.4088542 8.14550781,21.8160807 8.25683594,22.1149089 C8.33300781,22.3258464 8.48828125,22.5514323 8.72265625,22.7916667 C9.15625,23.2252604 9.76855469,23.4420573 10.5595703,23.4420573 L21.3964844,23.4420573 C22.3398438,23.4420573 23.0458984,23.0934245 23.5146484,22.3961589 C23.7255859,22.085612 23.8310547,21.5406901 23.8310547,20.7613932 L23.8310547,10.9440104 C23.8310547,10.0123698 23.4707031,9.31510417 22.75,8.85221354 C22.4511719,8.65299479 21.9736328,8.55338542 21.3173828,8.55338542 Z M20.921875,10.179362 C21.4082031,10.179362 21.7539062,10.2848307 21.9589844,10.4957682 C22.1230469,10.6598307 22.2050781,10.9703776 22.2050781,11.4274089 L22.2050781,20.6207682 C22.2050781,21.0309245 22.1201172,21.3326823 21.9501953,21.5260417 C21.7861328,21.719401 21.4873047,21.8160807 21.0537109,21.8160807 L10.9375,21.8160807 C10.4921875,21.8160807 10.1816406,21.7340495 10.0058594,21.569987 C9.8125,21.382487 9.71582031,21.0660807 9.71582031,20.6207682 L9.71582031,11.4274089 C9.71582031,11.0641276 9.75390625,10.8121745 9.83007812,10.6715495 C9.90039062,10.5426432 10.0146484,10.4254557 10.1728516,10.319987 C10.3134766,10.226237 10.6210938,10.179362 11.0957031,10.179362 L20.921875,10.179362 Z M21.0537109,11.1813151 L10.796875,11.1813151 L10.796875,12.8072917 L15.1123047,12.8072917 L15.1123047,14.8024089 L11.0253906,14.8024089 L11.0253906,16.4283854 L15.1123047,16.4283854 L15.1123047,19.2320964 L10.796875,19.2320964 L10.796875,20.8580729 L21.0537109,20.8580729 L21.0537109,19.2320964 L20.1484375,19.2320964 L20.1484375,17.7994792 L18.5136719,17.7994792 L18.5136719,19.2320964 L16.7382812,19.2320964 L16.7382812,16.4283854 L20.8603516,16.4283854 L20.8603516,14.8024089 L16.7382812,14.8024089 L16.7382812,12.8072917 L21.0537109,12.8072917 L21.0537109,11.1813151 Z"></path></clipPath></defs><g transform="translate(-2444.0 -1837.0)"><g clip-path="url(#i0)"><g transform="translate(2444.0 1837.0)"><g filter="url(#i1)"><g clip-path="url(#i2)"><polygon points="0,0 32,0 32,32 0,32 0,0" stroke="none" fill="#D8F0FF"></polygon></g></g></g></g></g></svg>