<?xml version="1.0" encoding="UTF-8"?><svg version="1.1" width="14px" height="14px" viewBox="0 0 14.0 14.0" xmlns="http://www.w3.org/2000/svg" xmlns:xlink="http://www.w3.org/1999/xlink"><defs><clipPath id="i0"><path d="M1920,0 L1920,1080 L0,1080 L0,0 L1920,0 Z"></path></clipPath><clipPath id="i1"><path d="M6.72955593,2.8 C9.2962226,2.8 11.3962226,4.9 11.3962226,7.46666666 L11.3962226,12.6 L13.0295559,12.6 C13.1695559,12.6 13.2628893,12.6933333 13.2628893,12.8333333 L13.2628893,13.7666667 C13.2628893,13.9066667 13.1695559,14 13.0295559,14 L0.429555926,14 C0.28955594,14 0.196222602,13.9066667 0.196222602,13.7666667 L0.196222602,12.8333333 C0.196222602,12.6933333 0.289555926,12.6 0.429555926,12.6 L2.06288926,12.6 L2.06288926,7.46666666 C2.06288926,4.9 4.16288925,2.8 6.72955593,2.8 Z M6.72955593,4.2 C4.93288926,4.2 3.46288926,5.67 3.46288926,7.46666666 L3.46288926,11.2 L9.9962226,11.2 L9.9962226,7.46666666 C9.9962226,5.67 8.52622259,4.2 6.72955593,4.2 Z M12.9828893,3.33666666 L13.4495559,4.15333334 C13.5195559,4.27 13.4728893,4.41 13.3562226,4.48 L12.1428893,5.18 C12.0262226,5.25 11.8862226,5.20333334 11.8162226,5.08666666 L11.3495559,4.27 C11.2795559,4.15333334 11.3262226,4.01333334 11.4428893,3.94333334 L12.6562226,3.24333334 C12.7728893,3.17333334 12.9128893,3.22 12.9828893,3.33666666 Z M0.826222602,3.22 L2.03955593,3.92 C2.15622259,3.99 2.17955593,4.13 2.13288926,4.24666666 L1.6662226,5.06333334 C1.5962226,5.18 1.4562226,5.20333334 1.33955593,5.15666666 L0.126222602,4.45666666 C0.00955593954,4.38666666 -0.0371107362,4.24666666 0.0328892638,4.13 L0.499555926,3.31333334 C0.569555926,3.19666668 0.709555926,3.17333334 0.826222602,3.22 Z M3.74288926,0.863333338 L4.44288926,2.07666666 C4.51288926,2.19333332 4.4662226,2.33333332 4.34955593,2.40333334 L3.53288926,2.87 C3.4162226,2.94 3.2762226,2.89333334 3.2062226,2.77666666 L2.5062226,1.56333334 C2.4362226,1.44666668 2.48288926,1.30666668 2.59955593,1.23666666 L3.4162226,0.77 C3.53288926,0.7 3.67288926,0.746666662 3.74288926,0.863333338 Z M10.0662226,0.746666662 L10.8828893,1.21333334 C10.9995559,1.28333334 11.0228893,1.42333334 10.9762226,1.54 L10.2762226,2.75333334 C10.2062226,2.87 10.0662226,2.89333334 9.94955593,2.84666666 L9.13288926,2.38 C9.0162226,2.31 8.96955593,2.17 9.03955593,2.05333334 L9.73955593,0.84 C9.80955593,0.723333338 9.94955593,0.7 10.0662226,0.746666662 Z M7.1962226,0 C7.3362226,0 7.42955593,0.0933333379 7.42955593,0.233333338 L7.42955593,1.63333334 C7.42955593,1.77333334 7.33622259,1.86666666 7.1962226,1.86666666 L6.26288926,1.86666666 C6.12288926,1.86666666 6.02955593,1.77333332 6.02955593,1.63333334 L6.02955593,0.233333338 C6.02955593,0.0933333379 6.12288926,0 6.26288926,0 L7.1962226,0 Z"></path></clipPath><clipPath id="i2"><path d="M2.52210396,0 C2.56877064,0.0233333379 2.6154373,0.07 2.6154373,0.14 L2.3354373,2.07666666 L3.8054373,2.07666666 C3.82877064,2.07666666 3.85210397,2.07666666 3.89877064,2.1 C3.9454373,2.14666668 3.96877062,2.21666668 3.92210396,2.26333334 L1.54210396,5.04 C1.51877064,5.06333332 1.47210397,5.08666666 1.44877064,5.08666666 L1.4254373,5.08666666 C1.37877062,5.06333332 1.33210396,5.01666666 1.33210396,4.94666666 L1.61210396,3.01 L0.118770636,3.01 C0.0954372977,3.01 0.0721039735,3.01 0.0487706356,2.98666666 C0.00210395978,2.94 -0.0212293644,2.87 0.0254372977,2.82333334 L2.4054373,0.0466666621 C2.42877064,0.0233333379 2.4754373,0 2.49877064,0 Z"></path></clipPath></defs><g transform="translate(-30.0 -424.0)"><g clip-path="url(#i0)"><g transform="translate(26.0 224.0)"><g transform="translate(0.0 197.0)"><g transform="translate(4.000000000000139 3.000000000000001)"><g clip-path="url(#i1)"><polygon points="8.32667268e-17,0 13.4824452,0 13.4824452,14 8.32667268e-17,14 8.32667268e-17,0" stroke="none" fill="#FFFFFF"></polygon></g><g transform="translate(4.7674519660874735 4.689999999999998)"><g clip-path="url(#i2)"><polygon points="1.00613962e-16,0 3.94754126,0 3.94754126,5.08666666 1.00613962e-16,5.08666666 1.00613962e-16,0" stroke="none" fill="#FFFFFF"></polygon></g></g></g></g></g></g></g></svg>