<?xml version="1.0" encoding="UTF-8"?><svg version="1.1" width="32px" height="32px" viewBox="0 0 32.0 32.0" xmlns="http://www.w3.org/2000/svg" xmlns:xlink="http://www.w3.org/1999/xlink"><defs><clipPath id="i0"><path d="M2924,0 L2924,5595 L0,5595 L0,0 L2924,0 Z"></path></clipPath><filter id="i1" x="-1.15561604%" y="-11.7647059%" filterUnits="userSpaceOnUse" width="114.465032%" height="111.764706%"><feDropShadow stdDeviation="0" dx="-2" dy="-2" flood-color="#465973"></feDropShadow></filter><clipPath id="i2"><path d="M13.4583482,0.188392864 C15.6563649,1.59840951 17.6680675,2.54826082 19.4864478,3.04369888 C21.2399686,3.5215171 22.793225,3.57196338 24.1602995,3.21262451 C24.914845,3.0143435 25.6528946,3.58350057 25.6528946,4.36363287 L25.6528946,18.7639646 C25.6528946,24.8201634 21.4167951,30.0511721 15.4928607,31.3101805 C14.7450921,31.4690896 13.9820507,31.678478 13.2036705,31.9386103 C12.959821,32.0201226 12.6961309,32.0204705 12.4520671,31.939602 C11.6733894,31.6815194 10.9108439,31.4734532 10.1643975,31.315073 C4.23838051,30.0578498 0,24.8258163 0,18.7679315 L0,4.36363287 C0,3.55702123 0.785487666,2.98406251 1.5535869,3.23040964 C2.73778534,3.61024438 4.27365324,3.56042619 6.16595091,3.04386417 C8.1334552,2.50677321 10.1287942,1.56148388 12.1521332,0.202211047 C12.5458762,-0.0622970758 13.0590975,-0.0677263396 13.4583482,0.188392864 Z M11.7336869,8.9169886 L10.223538,12.4174517 L6.42776911,12.7719972 C5.38869465,12.869055 4.9688599,14.1612204 5.75239716,14.8504767 L8.61487672,17.3684273 L7.77914112,21.0879648 C7.55034771,22.1061797 8.64955441,22.9047914 9.54720738,22.3725599 L12.8264473,20.4282953 L16.1056542,22.3725599 C17.0033071,22.9047914 18.1025138,22.1061467 17.8737204,21.0879648 L17.0379518,17.3684273 L19.9004313,14.8504767 C20.6839686,14.1612204 20.2641339,12.869055 19.2250594,12.7719972 L15.4292905,12.4174517 L13.9191416,8.9169886 C13.5057531,7.95880671 12.1470754,7.95880671 11.7336869,8.9169886 Z"></path></clipPath></defs><g transform="translate(-1912.0 -1837.0)"><g clip-path="url(#i0)"><g transform="translate(1912.0 1837.0)"><g filter="url(#i1)"><g transform="translate(3.680438714371121 0.0)"><g clip-path="url(#i2)"><polygon points="0,-2.77555756e-17 25.6528946,-2.77555756e-17 25.6528946,32 0,32 0,-2.77555756e-17" stroke="none" fill="#D8F0FF"></polygon></g></g></g></g></g></g></svg>