<?xml version="1.0" encoding="UTF-8"?><svg version="1.1" width="32px" height="32px" viewBox="0 0 32.0 32.0" xmlns="http://www.w3.org/2000/svg" xmlns:xlink="http://www.w3.org/1999/xlink"><defs><clipPath id="i0"><path d="M2924,0 L2924,5595 L0,5595 L0,0 L2924,0 Z"></path></clipPath><filter id="i1" x="-11.7647059%" y="-12.4267292%" filterUnits="userSpaceOnUse" width="111.764706%" height="112.426729%"><feDropShadow stdDeviation="0" dx="-2" dy="-2" flood-color="#465973"></feDropShadow></filter><clipPath id="i2"><path d="M32,12.0754717 C31.3962264,17.9119497 27.3710692,22.9433962 22.1383648,24.9559749 L22.1383648,30.1886792 L18.1132075,30.1886792 L18.1132075,21.9371069 C23.1446541,21.1320755 27.1698113,17.1069183 27.9748427,12.0754717 L32,12.0754717 Z M4.02515722,12.0754717 C4.83018868,17.1069183 8.8553459,21.1320755 13.8867925,21.9371069 L13.8867925,30.1886792 L10.0628931,30.1886792 L10.0628931,24.9559749 C4.6289308,22.9433962 0.805031415,17.9119497 0,12.0754717 L4.02515722,12.0754717 Z M20.5283019,0 C23.7484276,0 26.163522,2.21383651 26.163522,5.63522014 C26.163522,8.45283019 23.7484276,11.4716981 21.9371069,13.081761 C20.7295597,14.2893082 18.7169811,15.4968554 16.1006289,16.9056604 C13.4842767,15.4968553 11.4716981,14.2893082 10.2641509,13.081761 C8.25157231,11.2704403 6.03773585,8.45283024 6.03773585,5.63522014 C6.03773585,2.21383651 8.45283019,0 11.6729559,0 C13.4842767,0 14.8930817,0.805031462 16.1006289,2.21383651 C17.3081761,0.805031462 18.7169811,0 20.5283019,0 Z"></path></clipPath></defs><g transform="translate(-1770.0 -1837.0)"><g clip-path="url(#i0)"><g transform="translate(1770.0 1837.0)"><g filter="url(#i1)"><g clip-path="url(#i2)"><polygon points="0,0 32,0 32,30.1886792 0,30.1886792 0,0" stroke="none" fill="#D8F0FF"></polygon></g></g></g></g></g></svg>