<?xml version="1.0" encoding="UTF-8"?><svg version="1.1" width="38px" height="37px" viewBox="0 0 38.0 37.0" xmlns="http://www.w3.org/2000/svg" xmlns:xlink="http://www.w3.org/1999/xlink"><defs><clipPath id="i0"><path d="M1920,0 L1920,1080 L0,1080 L0,0 L1920,0 Z"></path></clipPath><filter id="i1" x="-11.7647059%" y="-12.1510034%" filterUnits="userSpaceOnUse" width="111.764706%" height="112.151003%"><feDropShadow stdDeviation="0" dx="-2" dy="-2" flood-color="#465973"></feDropShadow></filter><clipPath id="i2"><path d="M26,18.919092 C29.3137085,18.919092 32,21.6053835 32,24.919092 C32,28.2328005 29.3137085,30.919092 26,30.919092 C22.6862915,30.919092 20,28.2328005 20,24.919092 C20,21.6053835 22.6862915,18.919092 26,18.919092 Z M28.6666667,21.3096163 L25.9995243,23.9756163 L23.3333333,21.3096163 L22.3905243,22.2524254 L24.3895243,24.2516163 L22.6666667,24.2524254 L22.6666667,25.5857587 L25.3325243,25.5856163 L25.3325243,26.9186163 L22.6666667,26.919092 L22.6666667,28.2524254 L25.3325243,28.2516163 L25.3333333,29.5857587 L26.6666667,29.5857587 L26.6665243,28.2516163 L29.3333333,28.2524254 L29.3333333,26.919092 L26.6665243,26.9186163 L26.6665243,25.5856163 L29.3333333,25.5857587 L29.3333333,24.2524254 L27.6095243,24.2516163 L29.6094757,22.2524254 L28.6666667,21.3096163 Z M19.7039619,17.1439883 L19.7034364,21.1577798 C19.0450774,22.2575264 18.6666667,23.5441179 18.6666667,24.919092 C18.6666667,26.2940556 19.0450716,27.580638 19.7034213,28.6803792 L19.7039619,29.1276592 L14.7463929,29.1276592 L14.7463929,20.6318483 C15.9822005,19.934119 17.167849,19.1510619 18.294711,18.2883749 C18.7807754,17.9160294 19.2505257,17.5345672 19.7039619,17.1439883 Z M12.2866814,21.8647629 L12.2866814,29.1276592 L7.32911236,29.1276592 L7.32911236,23.458987 C8.93989046,23.1372632 10.6111267,22.6039359 12.2866814,21.8647629 Z M4.95756908,23.8890316 L4.95756908,29.1276592 L0,29.1276592 L0,23.8890316 L4.95756908,23.8890316 Z M24.0191631,0.0526825301 L29.9458621,6.0430785 C29.9755327,6.07252311 29.9844476,6.11698846 29.9684207,6.15559504 C29.9523939,6.19420163 29.9146089,6.21928031 29.8728084,6.21905493 L25.9397893,6.21905493 C25.1200054,8.37395647 23.8547025,10.5763609 22.1874248,12.6758424 C21.4718339,13.5758124 20.7044944,14.4333917 19.889295,15.2442346 C19.465608,15.6672018 19.0247673,16.0816521 18.5667728,16.4875854 C17.5053443,17.4296488 16.3795857,18.2966345 15.1976698,19.0822481 C14.4133932,19.6009407 13.6253978,20.070691 12.8336838,20.491499 C11.2157083,21.3501488 9.58801633,22.002953 8.00458834,22.4405549 C7.23509843,22.6540726 6.45285356,22.8186229 5.6625544,22.9332169 C3.87687948,23.1916036 2.18800958,23.1491389 0.681233904,22.7892689 C0.449477626,22.733849 0.222399658,22.6711116 0,22.6010569 L0,19.8786404 C0.521331669,20.1679759 1.11631673,20.3732217 1.78495519,20.494378 C2.46663937,20.6123187 3.15975185,20.650362 3.8502491,20.607737 C4.44053896,20.5735677 5.0276497,20.497443 5.60713442,20.3799393 C6.26169751,20.2473422 6.90726199,20.0736612 7.53999618,19.8599272 C8.90066463,19.4025324 10.2811259,18.7551263 11.6425141,17.9346227 C12.3287862,17.5204123 13.0125392,17.0604985 13.6750599,16.5671167 C14.6967852,15.8043515 15.6642857,14.9715267 16.5705739,14.0746571 C16.9580068,13.6912469 17.3343461,13.2967867 17.6991262,12.8917644 C18.3884927,12.1267992 19.0330174,11.3225851 19.6294689,10.4831545 C20.6216304,9.0836201 21.4302583,7.64485986 22.0323208,6.21869506 L17.9096501,6.21869506 C17.8682045,6.21833938 17.8310161,6.19315804 17.8152984,6.15480677 C17.7995806,6.11645551 17.8084007,6.0724182 17.8376761,6.0430785 L23.764735,0.0526825301 C23.8349996,-0.0175608434 23.9488985,-0.0175608434 24.0191631,0.0526825301 Z M27.1395958,6.72719136 L27.1396003,17.6737767 C26.7682286,17.6158334 26.3876265,17.5857587 26,17.5857587 C24.6014539,17.5857587 23.2943468,17.9772552 22.1822922,18.6566346 L22.1820267,14.7486936 C24.5352167,12.189658 26.2280451,9.40966232 27.1395958,6.72719136 Z"></path></clipPath><linearGradient id="i3" x1="16px" y1="3.81107233e-31px" x2="16px" y2="30.919092px" gradientUnits="userSpaceOnUse"><stop stop-color="#D8F0FF" offset="0%"></stop><stop stop-color="#D8F0FF" offset="100%"></stop></linearGradient></defs><g clip-path="url(#i0)" transform="translate(-35.0 -179.0)"><g transform="translate(19.99999999999997 177.0)"><g transform="translate(17.999999999999396 5.080907960330176)"><g filter="url(#i1)"><g transform=""><g clip-path="url(#i2)"><polygon points="0,6.9388939e-18 32,6.9388939e-18 32,30.919092 0,30.919092 0,6.9388939e-18" stroke="none" fill="url(#i3)"></polygon></g></g></g></g></g></g></svg>