<?xml version="1.0" encoding="UTF-8"?><svg version="1.1" width="32px" height="32px" viewBox="0 0 32.0 32.0" xmlns="http://www.w3.org/2000/svg" xmlns:xlink="http://www.w3.org/1999/xlink"><defs><clipPath id="i0"><path d="M2924,0 L2924,5595 L0,5595 L0,0 L2924,0 Z"></path></clipPath><filter id="i1" x="-11.7647059%" y="-11.7603351%" filterUnits="userSpaceOnUse" width="111.764706%" height="111.765289%"><feDropShadow stdDeviation="0" dx="-2" dy="-2" flood-color="#465973"></feDropShadow></filter><clipPath id="i2"><path d="M14.8202726,5.83379821 L18.7560655,8.09894216 L18.7560655,12.9290037 L18.6567023,12.9677385 C17.3144571,13.5167623 16.1136782,14.315036 15.0829956,15.3221409 C14.2602836,16.1216788 13.5686188,17.045793 13.0334193,18.0605231 L13.0334193,8.44923949 L1.95358138,11.9151623 L1.95358138,31.9983159 L0,31.9983159 L0.00673646124,10.8929004 L14.8202726,5.83379821 Z M11.025946,28.4111362 L11.025946,31.9275827 L4.05873373,31.9275827 L4.05873373,28.8894269 L11.025946,28.4111362 Z M13.0351034,28.1433609 C13.5725948,29.1566397 14.2640063,30.0804154 15.0846797,30.8817431 C15.4551866,31.2455134 15.847587,31.5840219 16.2635651,31.888848 L13.0351034,31.888848 L13.0351034,28.1433609 Z M23.0371033,14.3335614 C27.9884217,14.3335614 32,18.2575654 32,23.1027841 C32,27.9463186 27.9884217,31.8703226 23.0371033,31.8703226 C18.085785,31.8703226 14.0725225,27.9463186 14.0725225,23.1027841 C14.0725225,18.2575654 18.085785,14.3335614 23.0371033,14.3335614 Z M28.0928372,22.7440661 L18.169991,22.7440661 L18.169991,28.1804116 L19.6402294,28.1804116 L19.6402294,23.8471659 L26.6209147,23.8471659 L26.6209147,26.2638808 C26.6209147,26.9375296 26.6209147,26.977156 25.9989146,26.979487 L25.5163597,26.9792015 C25.1252123,26.977477 25.0233566,26.9688543 24.5140782,26.9257407 C24.6824904,27.5421293 24.6824904,27.5421293 24.8037472,28.2157781 L25.5664272,28.2151496 C26.4395069,28.2124786 26.5202683,28.1984557 26.9442661,28.1248355 C27.468028,28.033893 27.468028,28.033893 27.7812747,27.6027577 C28.0541024,27.2271985 28.0541024,27.2271985 28.0877848,26.5754434 L28.0928372,26.3851376 L28.0928372,22.7440661 Z M25.6289669,24.3321931 L20.6102837,24.3321931 L20.6102837,27.178359 L21.9491606,27.178359 L21.9491606,26.8347982 L25.6289669,26.8347982 L25.6289669,24.3321931 Z M11.0276301,22.8973212 L11.0276301,26.2419873 L4.05873373,26.8802694 L4.05873373,24.0088416 L11.025946,22.8973212 Z M24.29009,25.2584601 L24.29009,25.9085311 L21.9491606,25.9085311 L21.9491606,25.2584601 L24.29009,25.2584601 Z M27.011631,19.7985369 L19.2276196,19.7985369 L19.2276196,22.2691437 L27.011631,22.2691437 L27.011631,19.7985369 Z M11.0242619,17.1948845 L11.0242619,20.5446029 L4.05704963,21.8649545 L4.05704963,18.92953 L11.0242619,17.1948845 Z M25.5161307,20.7483817 L25.5161307,21.3209831 L20.7214357,21.3209831 L20.7214357,20.7483817 L25.5161307,20.7483817 Z M23.764644,17.2740382 L21.96937,17.5401295 C22.0619967,17.7422241 22.0619967,17.7422241 22.163044,17.9729488 L22.2640914,18.2120941 L17.6327562,18.2120941 L17.6327562,19.3370875 L28.5812326,19.3370875 L28.5812326,18.2120941 L24.1267302,18.2120941 C24.0189463,17.9173728 24.0189463,17.9173728 23.8943213,17.5990737 L23.764644,17.2740382 Z M11.0242619,11.4553971 L11.0242619,14.9331088 L4.05704963,16.7519604 L4.05704963,13.6885427 L11.0242619,11.4553971 Z M23.4530814,0 L27.8486396,3.63096678 L27.8486396,13.1597284 C26.0559674,12.3268931 24.0773402,11.9751629 22.107468,12.1391506 L22.107468,2.23146149 L8.81974632,6.47544865 L8.81974632,5.1803589 L23.4530814,0 Z"></path></clipPath></defs><g transform="translate(-1983.0 -1837.0)"><g clip-path="url(#i0)"><g transform="translate(1983.0 1837.0)"><g filter="url(#i1)"><g transform="translate(0.0 0.0016841350462755145)"><g clip-path="url(#i2)"><polygon points="0,0 32,0 32,31.9983159 0,31.9983159 0,0" stroke="none" fill="#D8F0FF"></polygon></g></g></g></g></g></g></svg>