<?xml version="1.0" encoding="UTF-8"?><svg version="1.1" width="32px" height="32px" viewBox="0 0 32.0 32.0" xmlns="http://www.w3.org/2000/svg" xmlns:xlink="http://www.w3.org/1999/xlink"><defs><clipPath id="i0"><path d="M2924,0 L2924,5595 L0,5595 L0,0 L2924,0 Z"></path></clipPath><filter id="i1" x="0%" y="-8.5106383%" filterUnits="userSpaceOnUse" width="115.11299%" height="112.765957%"><feDropShadow stdDeviation="0" dx="-2" dy="-2" flood-color="#465973"></feDropShadow></filter><clipPath id="i2"><path d="M12.2316603,0 L13.0244531,0.453024471 C13.0244531,0.453024471 14.949807,1.81209782 17.7812098,2.94465894 C20.5268126,4.04290002 23.1659192,4.07618005 23.3233439,4.07718859 L24.3500644,4.07722011 L24.4633205,16.5353926 C24.6898327,22.7644788 15.1763192,29.3333333 12.3449164,29.3333333 C9.8532819,29.3333333 0.113256149,22.7644788 0.113256149,16.5353926 L0,4.07722011 L1.24581726,4.07722011 C1.24581726,4.07722011 3.96396396,3.96396403 6.79536681,2.94465894 C9.74002575,1.81209782 11.5521236,0.453024471 11.5521236,0.453024471 L12.2316603,0 Z M9.28700134,8.49420849 L7.81467184,8.49420849 L7.81467184,10.5328185 L6.45559849,10.5328185 L6.45559849,12.1184041 L7.70141575,12.1184041 C7.36164743,13.2509652 6.90862296,14.2702703 6.34234234,15.4028314 C6.45559843,16.0823682 6.56885458,16.7619048 6.68211073,17.5546976 C7.1351352,16.8751609 7.47490352,16.0823681 7.81467184,15.2895753 L7.81467184,20.1595882 L9.28700134,20.1595882 L9.28700134,15.0630631 C9.62676966,15.2895753 9.8532819,15.4028314 9.96653798,15.6293436 L10.7593308,14.2702703 C10.3063063,14.043758 9.8532819,13.7039897 9.28700134,13.4774775 L9.28700134,12.1184041 L10.4195625,12.1184041 L10.4195625,13.5907336 L13.4774775,13.5907336 L13.4774775,17.8944659 C13.4774775,18.3474904 13.2509652,18.5740026 12.7979408,18.5740026 C12.4581725,18.5740026 12.1184041,18.5740026 11.6653797,18.4607465 C11.7786358,18.9137709 11.891892,19.4800515 12.005148,20.1595882 L13.8172459,20.1595882 C14.2702703,20.1595882 14.6100387,20.0463321 14.8365509,19.8198198 C15.0630631,19.5933076 15.1763192,19.2535393 15.1763192,18.8005148 L15.1763192,13.7039897 L18.2342342,13.7039897 L18.2342342,12.005148 L10.4195625,12.005148 L10.4195625,10.5328185 L9.28700134,10.5328185 L9.28700134,8.49420849 Z M11.4388675,14.2702703 C10.985843,15.7425998 10.5328186,16.988417 9.96653798,18.1209781 C10.4195625,18.2342342 10.8725869,18.4607465 11.3256113,18.6872587 C11.8918919,17.5546976 12.3449164,16.1956242 12.7979408,14.7232947 L11.4388675,14.2702703 Z M16.8751609,14.3835264 L15.5160875,14.8365508 C15.969112,15.9691119 16.4221364,17.2149292 16.8751609,18.6872587 L18.3474904,18.1209781 C17.8944659,16.7619048 17.4414415,15.5160875 16.8751609,14.3835264 Z M17.7812098,8.94723296 L10.985843,8.94723296 L10.985843,10.5328185 L17.7812098,10.5328185 L17.7812098,8.94723296 Z"></path></clipPath></defs><g transform="translate(-2373.0 -1837.0)"><g clip-path="url(#i0)"><g transform="translate(2373.0 1837.0)"><g filter="url(#i1)"><g transform="translate(4.0 1.333333333333334)"><g clip-path="url(#i2)"><polygon points="0,0 24.4672975,0 24.4672975,29.3333333 0,29.3333333 0,0" stroke="none" fill="#D8F0FF"></polygon></g></g></g></g></g></g></svg>