<?xml version="1.0" encoding="UTF-8"?><svg version="1.1" width="32px" height="32px" viewBox="0 0 32.0 32.0" xmlns="http://www.w3.org/2000/svg" xmlns:xlink="http://www.w3.org/1999/xlink"><defs><clipPath id="i0"><path d="M2924,0 L2924,5595 L0,5595 L0,0 L2924,0 Z"></path></clipPath><filter id="i1" x="-4.65116279%" y="-4.65116279%" filterUnits="userSpaceOnUse" width="113.953488%" height="113.953488%"><feDropShadow stdDeviation="0" dx="-2" dy="-2" flood-color="#465973"></feDropShadow></filter><clipPath id="i2"><path d="M24.8926316,0 L26.6666667,26.6666667 L0,26.6666667 L0,13.0863158 L6.90807017,8.21754386 L8.2891228,8.21754386 L8.2891228,12.4364912 L14.9361403,8.21754386 L16.3803509,8.21754386 L16.3803509,12.2596491 L18.3649123,12.2596491 L18.3649123,15.8989474 L18.8210526,15.8989474 L20.4912281,0 L24.8926316,0 Z M23.9901754,21.7235088 L19.7796491,21.7235088 L19.7796491,23.1284211 L23.9901754,23.1284211 L23.9901754,21.7235088 Z M13.8414035,20.317193 L11.037193,20.317193 L11.037193,23.1284211 L13.8414035,23.1284211 L13.8414035,20.317193 Z M7.53263159,20.317193 L4.72701754,20.317193 L4.72701754,23.1284211 L7.53263159,23.1284211 L7.53263159,20.317193 Z M23.9901754,18.2091228 L20.3817544,18.2091228 L20.3817544,19.6154386 L23.9901754,19.6154386 L23.9901754,18.2091228 Z M7.53263159,15.3978947 L4.72701754,15.3978947 L4.72701754,18.2091228 L7.53263159,18.2091228 L7.53263159,15.3978947 Z M13.8414035,15.3978947 L11.037193,15.3978947 L11.037193,18.2091228 L13.8414035,18.2091228 L13.8414035,15.3978947 Z"></path></clipPath></defs><g transform="translate(-1689.0 -1837.0)"><g clip-path="url(#i0)"><g transform="translate(1689.0 1837.0)"><g filter="url(#i1)"><g transform="translate(2.666666666666666 2.666666666666666)"><g clip-path="url(#i2)"><polygon points="0,0 26.6666667,0 26.6666667,26.6666667 0,26.6666667 0,0" stroke="none" fill="#D8F0FF"></polygon></g></g></g></g></g></g></svg>