<?xml version="1.0" encoding="UTF-8"?><svg version="1.1" width="32px" height="34px" viewBox="0 0 32.0 34.0" xmlns="http://www.w3.org/2000/svg" xmlns:xlink="http://www.w3.org/1999/xlink"><defs><clipPath id="i0"><path d="M1920,0 L1920,1080 L0,1080 L0,0 L1920,0 Z"></path></clipPath><filter id="i1" x="-14.8921903%" y="-13.9534884%" filterUnits="userSpaceOnUse" width="114.89219%" height="113.953488%"><feDropShadow stdDeviation="0" dx="-2" dy="-2" flood-color="#465973"></feDropShadow></filter><clipPath id="i2"><path d="M23.6906536,10.2395488 C24.019196,10.2395488 24.2382028,10.4585877 24.2382028,10.7871301 L24.2382028,26.1191175 C24.2382028,26.4476598 24.019196,26.6666667 23.6906536,26.6666667 L18.7625183,26.6666667 C18.4339759,26.6666667 18.214937,26.4476598 18.214937,26.1191175 L18.214937,10.7871301 C18.214937,10.4585877 18.4339759,10.2395488 18.7625183,10.2395488 L23.6906536,10.2395488 Z M15.4770947,15.1676841 C15.805637,15.1676841 16.0246439,15.3867231 16.0246439,15.7152654 L16.0246439,26.1191175 C16.0246439,26.4476598 15.805637,26.6666667 15.4770947,26.6666667 L10.5489593,26.6666667 C10.220417,26.6666667 10.001378,26.4476598 10.001378,26.1191175 L10.001378,15.7152654 C10.001378,15.3867231 10.220417,15.1676841 10.5489593,15.1676841 L15.4770947,15.1676841 Z M7.26353573,17.9055585 C7.59207809,17.9055585 7.81108494,18.1245654 7.81108494,18.4531077 L7.81108494,26.1191175 C7.81108494,26.4476598 7.59207809,26.6666667 7.26353573,26.6666667 L2.88294957,26.6666667 C2.55440721,26.6666667 2.33540036,26.4476598 2.33540036,26.1191175 L2.33540036,18.4531077 C2.33540036,18.1245654 2.55440721,17.9055585 2.88294957,17.9055585 L7.26353573,17.9055585 Z M22.8336939,0 C23.9288244,0 24.8597158,0.93085932 24.8597158,2.02598982 C24.8597158,3.12112032 23.9288244,4.05201172 22.8336939,4.05201172 C22.474547,4.05201172 22.1330642,3.95778419 21.8362859,3.79057463 L16.3858172,9.2403937 C16.5510288,9.5323483 16.6461568,9.87195834 16.6461568,10.2395488 C16.6461568,11.389447 15.7152654,12.2655707 14.6201349,12.2655707 C13.5250044,12.2655707 12.594113,11.389447 12.594113,10.2395488 C12.594113,9.86895935 12.6851112,9.52680874 12.8469448,9.23325749 L10.6891901,7.07612066 C10.3924625,7.24325377 10.0510587,7.3374353 9.69199956,7.3374353 C9.33294038,7.3374353 8.99153657,7.24325377 8.69480898,7.07612066 L3.79168654,11.9782603 C3.95689023,12.2702194 4.05201172,12.6098327 4.05201172,12.9774231 C4.05201172,14.1273214 3.1211524,15.003413 2.0260219,15.003413 C0.93085932,15.003413 0,14.1273214 0,12.9774231 C0,11.8275249 0.93085932,10.9514012 2.0260219,10.9514012 C2.38549964,10.9514012 2.72727148,11.0457969 3.02423004,11.2132859 L7.92631727,6.3105762 C7.7611057,6.01861715 7.66597766,5.67900382 7.66597766,5.3114134 C7.66597766,4.16151514 8.54210131,3.28542358 9.69199956,3.28542358 C10.8418978,3.28542358 11.7180215,4.16151514 11.7180215,5.3114134 C11.7180215,5.67900382 11.6228934,6.01861715 11.4576819,6.3105762 L13.6138358,8.46638286 C13.9073916,8.30455377 14.2495455,8.21355895 14.6201349,8.21355895 C14.9791941,8.21355895 15.3205979,8.30773703 15.6173255,8.47486551 L21.0680307,3.02518637 C20.9028074,2.73321974 20.807672,2.39359441 20.807672,2.02598982 C20.807672,0.876091565 21.7385634,0 22.8336939,0 Z"></path></clipPath></defs><g transform="translate(-61.0 -215.0)"><g clip-path="url(#i0)"><g transform="translate(20.0 177.0)"><g transform="translate(44.6666666666669 41.666666666666686)"><g filter="url(#i1)"><g transform=""><g clip-path="url(#i2)"><polygon points="0,0 24.8597158,0 24.8597158,26.6666667 0,26.6666667 0,0" stroke="none" fill="#D8F0FF"></polygon></g></g></g></g></g></g></g></svg>