<?xml version="1.0" encoding="UTF-8"?><svg version="1.1" width="32px" height="32px" viewBox="0 0 32.0 32.0" xmlns="http://www.w3.org/2000/svg" xmlns:xlink="http://www.w3.org/1999/xlink"><defs><clipPath id="i0"><path d="M2924,0 L2924,5595 L0,5595 L0,0 L2924,0 Z"></path></clipPath><filter id="i1" x="-11.7647059%" y="-11.7729709%" filterUnits="userSpaceOnUse" width="111.764706%" height="111.772971%"><feDropShadow stdDeviation="0" dx="-2" dy="-2" flood-color="#465973"></feDropShadow></filter><clipPath id="i2"><path d="M17.7081744,29.6705457 C18.3448441,29.6705457 18.8609669,30.1866685 18.8609669,30.8233383 C18.8609669,31.460008 18.3448441,31.9761308 17.7081744,31.9761308 L14.2758146,31.9761308 C13.6391449,31.9761308 13.1230221,31.460008 13.1230221,30.8233383 C13.1230221,30.1866685 13.6391449,29.6705457 14.2758146,29.6705457 L17.7081744,29.6705457 Z M19.7275627,26.2081653 C20.3642324,26.2081653 20.8803552,26.7242881 20.8803552,27.3609579 C20.8803552,27.9976276 20.3642324,28.5137504 19.7275627,28.5137504 L12.2524235,28.5137504 C11.6157538,28.5137504 11.099631,27.9976276 11.099631,27.3609579 C11.099631,26.7242881 11.6157538,26.2081653 12.2524235,26.2081653 L19.7275627,26.2081653 Z M20.570142,7.9476112 C23.4039815,9.5880171 25.1484368,12.6146891 25.1472893,15.889071 C25.1472893,19.163322 23.4020889,22.1914038 20.570142,23.8305307 C17.7378397,25.4686262 14.2461493,25.4686262 11.413847,23.8305307 C8.57923732,22.1906327 6.83396409,19.1638651 6.83469862,15.889071 C6.83469862,12.6128185 8.57989868,9.58473672 11.413847,7.9476112 C14.2461493,6.30951568 17.7378397,6.30951568 20.570142,7.9476112 Z M4.58515229,14.8123307 C5.22182203,14.8123307 5.73794484,15.3284535 5.73794484,15.9651232 C5.73794484,16.601793 5.22182203,17.1179158 4.58515229,17.1179158 L1.15279254,17.1179158 C0.516122803,17.1179158 0,16.601793 0,15.9651232 C0,15.3284535 0.516122803,14.8123307 1.15279254,14.8123307 L4.58515229,14.8123307 Z M30.8472075,14.7923169 C31.4838772,14.7923169 32,15.3084397 32,15.9451095 C32,16.5817792 31.4838772,17.097902 30.8472075,17.097902 L27.4148477,17.097902 C26.778178,17.097902 26.2620552,16.5817792 26.2620552,15.9451095 C26.2620552,15.3084397 26.778178,14.7923169 27.4148477,14.7923169 L30.8472075,14.7923169 Z M26.7932311,4.31967229 C27.1909427,4.42650051 27.5014512,4.7373905 27.6077911,5.135233 C27.7141309,5.5330755 27.6001466,5.95742876 27.3087748,6.24844302 L24.8811058,8.67811342 C24.4286826,9.12798249 23.6988527,9.12753447 23.2489837,8.67711273 C22.7991146,8.226691 22.7995626,7.4968611 23.2499844,7.04699203 L25.6796548,4.61732163 C25.9710265,4.32630735 26.3955194,4.21284406 26.7932311,4.31967229 Z M6.30633561,4.63133126 L8.736006,7.06500441 C9.12783691,7.52300017 9.10152541,8.2053196 8.67558821,8.63178071 C8.24965101,9.05824182 7.56736444,9.08539204 7.10888736,8.69412443 L4.67921696,6.26245265 C4.28091521,5.80518573 4.30415376,5.11773287 4.73242575,4.68840732 C5.16069774,4.25908176 5.84809143,4.23415421 6.30633561,4.63133126 Z M15.9909938,0 C16.6012908,0 17.1058385,0.475655589 17.141785,1.08489308 L17.141785,4.52325696 C17.141785,5.15914593 16.6268818,5.67494553 15.9909938,5.6760495 C15.6854379,5.6760495 15.392426,5.55453155 15.1765532,5.33828329 C14.9606803,5.12203502 14.8396712,4.82881237 14.8402009,4.52325696 L14.8402009,1.08489308 C14.8761491,0.475655589 15.3806968,0 15.9909938,0 Z"></path></clipPath></defs><g transform="translate(-2292.0 -1837.0)"><g clip-path="url(#i0)"><g transform="translate(2292.0 1837.0)"><g filter="url(#i1)"><g clip-path="url(#i2)"><polygon points="0,0 32,0 32,31.9761308 0,31.9761308 0,0" stroke="none" fill="#D8F0FF"></polygon></g></g></g></g></g></svg>