<?xml version="1.0" encoding="UTF-8"?><svg version="1.1" width="32px" height="32px" viewBox="0 0 32.0 32.0" xmlns="http://www.w3.org/2000/svg" xmlns:xlink="http://www.w3.org/1999/xlink"><defs><clipPath id="i0"><path d="M2924,0 L2924,5595 L0,5595 L0,0 L2924,0 Z"></path></clipPath><filter id="i1" x="-11.7647059%" y="-9.41651409%" filterUnits="userSpaceOnUse" width="111.764706%" height="112.63953%"><feDropShadow stdDeviation="0" dx="-2" dy="-2" flood-color="#465973"></feDropShadow></filter><clipPath id="i2"><path d="M3.47663793,0 C4.71649428,0 5.97634832,0.64681131 7.44617802,2.02331852 C8.08210651,2.64192523 8.66725828,3.3106701 9.1959753,4.02308684 L9.1959753,4.04308449 L9.58431499,4.53844409 C10.1592521,5.25087847 10.732161,5.82924123 11.7356811,6.32282039 C12.8622172,6.87608962 14.4686978,7.26937738 16.6151158,7.51601546 C16.4926876,7.17242196 16.4186532,6.81346737 16.3951412,6.44947239 C16.3405356,5.7646532 16.49387,5.07929505 16.8350903,4.48303354 C17.4304749,3.50503284 18.5035071,2.92020485 19.6480977,2.94987782 C20.831294,2.94987782 22.1844705,3.46648462 23.9109372,4.58302194 L24.3367044,4.8013356 C25.4900296,5.37973494 27.9477159,6.51772535 30.173545,6.9727451 C31.2278161,7.17867739 31.9914058,8.09832921 32,9.17249022 L32,14.3585561 C31.999129,14.9593126 31.7587238,15.5349194 31.3320516,15.9578379 C30.9053794,16.3807564 30.3276708,16.6160659 29.72693,16.61175 L17.5350092,16.61175 L14.1054065,16.5882977 C13.402488,16.5494664 12.7054995,16.4377695 12.0256475,16.255003 C9.99124401,15.7019113 8.05902046,14.8252647 6.30297715,13.6586372 C3.715536,11.9587172 1.66944164,9.55290809 0.406993543,6.72610698 C0.128462656,5.98031555 -0.00831169111,5.18905896 0.00370695361,4.39304396 C-0.0348471575,3.35943299 0.228019345,2.33691704 0.760285968,1.45005161 C1.36098783,0.537076509 2.38380487,-0.00884424719 3.47663793,0 Z"></path></clipPath><clipPath id="i3"><path d="M12,0 C18.627417,0 24,5.372583 24,12 C24,13.9673513 23.5265671,15.8241265 22.6874156,17.4626114 C21.9338806,17.141546 21.2011155,16.7899888 20.5315449,16.437864 C18.714907,15.2565969 17.1341014,14.6514814 15.6480977,14.6514814 C14.6978153,14.6265776 13.7714886,14.913557 12.9999683,15.4452382 L13.0008642,14.3342883 L14.7482019,14.3350059 C15.3004227,14.3350059 15.7480861,13.8873425 15.7480861,13.3351217 C15.7480861,12.782901 15.3004227,12.3352376 14.7482019,12.3352376 L13.0008642,12.3342883 L13.0008642,10.8182883 L14.7482019,10.8187466 C15.3004227,10.8187466 15.7480861,10.3710832 15.7480861,9.81886243 C15.7480861,9.26664166 15.3004227,8.81897827 14.7482019,8.81897827 L13.7118642,8.81828833 L15.4614527,7.07251394 C15.852609,6.68135756 15.852609,6.04716776 15.4614527,5.65601138 C15.0702963,5.264855 14.4361065,5.26485501 14.0449501,5.6560114 L12.0018535,7.69910804 L9.95875686,5.65267844 C9.70572305,5.39964462 9.33691823,5.30082366 8.9912676,5.39344047 C8.64561698,5.48605727 8.37563311,5.75604114 8.28301631,6.10169176 C8.1903995,6.44734239 8.28922046,6.81614721 8.54225428,7.06918102 L10.2918642,8.81828833 L9.2488391,8.81897827 C8.69661832,8.81897827 8.24895494,9.26664166 8.24895494,9.81886243 C8.24895494,10.3710832 8.69661832,10.8187466 9.2488391,10.8187466 L11.0018642,10.8182883 L11.0018642,12.3342883 L9.2488391,12.3352376 C8.69661832,12.3352376 8.24895494,12.782901 8.24895494,13.3351217 C8.24895494,13.8873425 8.69661832,14.3350059 9.2488391,14.3350059 L11.0018642,14.3342883 L11.0019693,16.6147418 C11.0019693,16.8799275 11.107314,17.134252 11.2948286,17.3217666 C11.3300951,17.3570332 11.3677248,17.3893932 11.4073455,17.4186926 C11.2444623,17.8136467 11.1373298,18.2244705 11.0861268,18.6412474 L11.0573333,18.9746667 L10.6883591,18.9038544 C9.70463325,18.7021618 8.91920163,18.4535557 8.3234528,18.160969 L8.14095994,18.0678657 C7.55599188,17.7573385 7.19034323,17.4329075 6.62115768,16.732254 L6.528,16.616 L6.26666496,16.263416 C5.69534747,15.4935975 5.0630481,14.7709697 4.37588076,14.1025198 C2.84498063,12.6685266 1.44423214,11.8827903 0.00313068412,11.729575 L0.002,11.809 L0.00379985776,11.6950252 C0.165607248,5.20854437 5.47454326,0 12,0 Z"></path></clipPath></defs><g transform="translate(-1841.0 -1837.0)"><g clip-path="url(#i0)"><g transform="translate(1841.0 1837.0)"><g filter="url(#i1)"><g transform="translate(0.0 1.0199797756813496)"><g transform="translate(0.0 13.034936923878451)"><g clip-path="url(#i2)"><polygon points="4.98732999e-17,-0.000105843701 32,-0.000105843701 32,16.6118083 4.98732999e-17,16.6118083 4.98732999e-17,-0.000105843701" stroke="none" fill="#D8F0FF"></polygon></g></g><g transform="translate(4.0 0.0)"><g clip-path="url(#i3)"><polygon points="0,0 24,0 24,18.9746667 0,18.9746667 0,0" stroke="none" fill="#D8F0FF"></polygon></g></g></g></g></g></g></g></svg>