<?xml version="1.0" encoding="UTF-8"?><svg version="1.1" width="32px" height="32px" viewBox="0 0 32.0 32.0" xmlns="http://www.w3.org/2000/svg" xmlns:xlink="http://www.w3.org/1999/xlink"><defs><clipPath id="i0"><path d="M2924,0 L2924,5595 L0,5595 L0,0 L2924,0 Z"></path></clipPath><filter id="i1" x="-11.7647059%" y="-12.3824701%" filterUnits="userSpaceOnUse" width="111.764706%" height="112.38247%"><feDropShadow stdDeviation="0" dx="-2" dy="-2" flood-color="#465973"></feDropShadow></filter><clipPath id="i2"><path d="M2.05019305,0.0680327742 C2.44015444,-0.1057124 2.8996139,0.0641717703 3.07335907,0.45413316 C3.24710425,0.84409455 3.07722008,1.30355401 2.68725869,1.47729918 C1.61003861,1.96378567 1.54440154,2.30355401 1.54440154,2.30741501 C1.54440154,2.35760806 1.67953668,2.61629532 2.33204633,2.96378567 C3.02702703,3.33444204 4.08880309,3.68579339 5.4015444,3.98309069 C8.22393822,4.62015633 11.988417,4.97150768 16,4.97150768 C20.011583,4.97150768 23.7760618,4.62015633 26.5984556,3.98309069 C27.9111969,3.68579339 28.972973,3.33444204 29.6679537,2.96378567 C30.3204633,2.61243432 30.4555985,2.35760806 30.4555985,2.30741501 C30.4555985,2.30741501 30.3976834,1.9946737 29.4324324,1.53521424 C29.046332,1.35374706 28.8841699,0.8942876 29.0656371,0.508187214 C29.2471042,0.122086828 29.7065637,-0.0400753339 30.0926641,0.141391848 C31.3590734,0.739847446 32,1.46957718 32,2.30741501 C32,3.68193239 30.3436293,4.72054243 26.9382239,5.4888822 C24.007722,6.14911386 20.1235521,6.51204822 16,6.51204822 C11.8764479,6.51204822 7.99227799,6.14911386 5.06177606,5.4888822 C1.65637066,4.72054243 0,3.67807138 0,2.30741501 C0,1.43868914 0.691119691,0.685793392 2.05019305,0.0680327742 Z"></path></clipPath><clipPath id="i3"><path d="M11.4285714,0 C12.4805424,0 13.3333333,0.852790951 13.3333333,1.9047619 L13.3333333,24.7619048 L15.2380952,24.7619048 L15.2380952,17.1428571 C15.2380952,16.0908862 16.0908862,15.2380952 17.1428571,15.2380952 L19.0476191,15.2380952 C19.5527933,15.2380952 20.037277,15.4387749 20.3944891,15.7959871 C20.7517013,16.1531992 20.952381,16.6376829 20.952381,17.1428571 L20.952381,24.6666667 C20.952381,25.7712362 20.0569505,26.6666667 18.952381,26.6666667 L2,26.6666667 C0.8954305,26.6666667 -1.82683884e-15,25.7712362 0,24.6666667 L0,1.9047619 C0,0.852790951 0.852790951,0 1.9047619,0 Z M19.0476191,20.952381 L17.1428571,20.952381 L17.1428571,22.8571429 L19.0476191,22.8571429 L19.0476191,20.952381 Z M9.52380953,19.047619 L3.8095238,19.047619 L3.8095238,22.8571429 L9.52380953,22.8571429 L9.52380953,19.047619 Z M19.0476191,17.1428571 L17.1428571,17.1428571 L17.1428571,19.047619 L19.0476191,19.047619 L19.0476191,17.1428571 Z M9.52380953,13.3333333 L3.8095238,13.3333333 L3.8095238,17.1428571 L9.52380953,17.1428571 L9.52380953,13.3333333 Z M9.52380953,7.61904763 L3.8095238,7.61904763 L3.8095238,11.4285714 L9.52380953,11.4285714 L9.52380953,7.61904763 Z M9.52380953,1.9047619 L3.8095238,1.9047619 L3.8095238,5.7142857 L9.52380953,5.7142857 L9.52380953,1.9047619 Z"></path></clipPath></defs><g transform="translate(-1618.0 -1837.0)"><g clip-path="url(#i0)"><g transform="translate(1618.0 1837.0)"><g filter="url(#i1)"><g transform="translate(0.0 23.791684085523052)"><g clip-path="url(#i2)"><polygon points="0,-4.99600361e-16 32,-4.99600361e-16 32,6.51204822 0,6.51204822 0,-4.99600361e-16" stroke="none" fill="#D8F0FF"></polygon></g></g><g transform="translate(5.333333333333334 0.0)"><g clip-path="url(#i3)"><polygon points="0,0 20.952381,0 20.952381,26.6666667 0,26.6666667 0,0" stroke="none" fill="#D8F0FF"></polygon></g></g></g></g></g></g></svg>