<?xml version="1.0" encoding="UTF-8"?><svg version="1.1" width="20px" height="20px" viewBox="0 0 20.0 20.0" xmlns="http://www.w3.org/2000/svg" xmlns:xlink="http://www.w3.org/1999/xlink"><defs><clipPath id="i0"><path d="M1920,0 L1920,1080 L0,1080 L0,0 L1920,0 Z"></path></clipPath><clipPath id="i1"><path d="M8.08037202,0 C11.1167651,0 12.927881,1.74379664 12.927881,4.66213023 L12.9273363,4.89215449 C12.918893,6.19851177 12.7795791,9.26356986 10.4808986,10.8915134 L10.4737541,11.240994 C13.2350876,11.6192976 16,12.7289858 16,14.418731 C16.0035651,16.7966298 13.3100982,18 8.00176812,18 C2.69346668,18 0,16.796636 0,14.4223336 C0,12.7289774 2.77562116,11.6156845 5.53695459,11.240994 L5.53695461,10.8879108 C3.87586823,9.71697223 3.06854054,7.67412699 3.06854054,4.66213023 C3.06854054,1.74380083 4.8796606,0 7.91604956,0 L8.08037202,0 Z M8.08396761,1.23936264 L7.91964515,1.24296552 C6.2692671,1.24296523 4.30097571,1.83744098 4.30097571,4.66209671 C4.30097571,7.37868099 5.01184872,9.1332896 6.47289848,10.0195899 C6.65865421,10.1312795 6.76939393,10.3330405 6.76939393,10.5492148 L6.76939393,11.7922115 C6.76939393,12.1128693 6.53005566,12.379482 6.21569847,12.4083049 C3.21859663,12.7109477 1.23243519,13.8206359 1.23243519,14.4187163 C1.23243519,16.3027633 4.73794426,16.7362204 7.7749741,16.7562438 L8.00181084,16.7569866 C11.091783,16.7569866 14.7711865,16.3534629 14.7711865,14.4187163 C14.7711865,13.8170333 12.7850292,12.7109477 9.78792321,12.4083049 C9.46642216,12.3758788 9.22708389,12.1020595 9.23422776,11.777799 L9.26280551,10.5348024 C9.26637774,10.3222327 9.38068909,10.127676 9.55930096,10.0159873 C11.0239143,9.12607394 11.7026275,7.42551468 11.7026275,4.65849412 C11.7026275,1.83022951 9.73432987,1.23936264 8.08396761,1.23936264 Z"></path></clipPath></defs><g transform="translate(-1317.0 -448.0)"><g clip-path="url(#i0)"><g transform="translate(1250.0 267.0)"><g transform="translate(53.0 168.0)"><g transform="translate(14.0 13.0)"><g transform="translate(2.0 2.0)"><g clip-path="url(#i1)"><polygon points="0,0 16.0000035,0 16.0000035,18 0,18 0,0" stroke="none" fill="#FFFFFF"></polygon></g></g></g></g></g></g></g></svg>