<?xml version="1.0" encoding="UTF-8"?><svg version="1.1" width="20px" height="20px" viewBox="0 0 20.0 20.0" xmlns="http://www.w3.org/2000/svg" xmlns:xlink="http://www.w3.org/1999/xlink"><defs><clipPath id="i0"><path d="M1920,0 L1920,1080 L0,1080 L0,0 L1920,0 Z"></path></clipPath><clipPath id="i1"><path d="M1.14998107,13.8020173 L1.14998107,16.2392425 C1.15107063,16.5766044 1.42645112,16.8498071 1.76644446,16.8508313 L13.2331397,16.8508313 C13.5731514,16.8498028 13.8485589,16.5766165 13.8497031,16.2392365 L13.849699,13.8020173 L14.9998882,13.8020173 L14.9998882,16.7764073 C14.9998882,17.4493636 14.4447465,18 13.7665431,18 L1.23303288,18 C0.554931515,18 0,17.4492583 0,16.7764073 L0,13.8020173 L1.14998107,13.8020173 Z M12.9151393,5.90941593 C13.4893973,5.90941593 13.9493693,6.09113037 14.2967244,6.45466291 C14.5819211,6.75164629 14.7251459,7.08760509 14.7251459,7.46171127 C14.7251459,7.99306751 14.4324283,8.41693006 13.8471991,8.73340217 C14.1965395,8.80782942 14.4763027,8.97461614 14.6857604,9.23345417 C14.8952181,9.49218694 15,9.80451268 15,10.1703261 C15,10.7019942 14.8042276,11.154776 14.4133099,11.5287789 C14.0221825,11.9033001 13.5354671,12.0905081 12.9527476,12.0905081 C12.4006359,12.0905081 11.9433817,11.9326352 11.5795199,11.6181343 C11.2161805,11.302804 11.0052619,10.890344 10.9471746,10.3816875 L12.0788738,10.2454733 C12.1151241,10.531779 12.2120701,10.7507083 12.3696082,10.9016355 C12.5282946,11.0527705 12.719575,11.1285458 12.9441805,11.1285458 C13.1856049,11.1285458 13.3886905,11.0374294 13.5534352,10.8566471 C13.7188075,10.6746217 13.8014419,10.4295715 13.8014419,10.1214974 C13.8014419,9.82949048 13.7221509,9.59843389 13.5643002,9.42791464 C13.4061362,9.25666977 13.2132888,9.1711518 12.9859675,9.1711518 C12.8359519,9.1711518 12.6573126,9.19986538 12.4488996,9.25791449 L12.5779172,8.31244005 C12.8942461,8.32062912 13.1350441,8.25242142 13.3017742,8.10802507 C13.4679822,7.96352426 13.5514519,7.77185774 13.5514519,7.53199215 C13.5514519,7.32861376 13.4904428,7.16576367 13.3690514,7.04479428 C13.2461974,6.92372043 13.0838546,6.86328716 12.8817096,6.86328716 C12.6820719,6.86328716 12.5110575,6.93180584 12.3696098,7.06967207 C12.2286829,7.20691674 12.1428109,7.4081191 12.1118889,7.67224335 L11.0343047,7.49083988 C11.1092081,7.1251297 11.2225555,6.83198292 11.3735105,6.61284713 C11.5249886,6.39454143 11.7353869,6.22236403 12.0060623,6.09724626 C12.2766336,5.97202604 12.5794858,5.90941593 12.9151393,5.90941593 Z M7.27116905,5.90992937 C7.87311102,5.90992937 8.34582729,6.070601 8.69036252,6.39298087 C8.99128097,6.67470009 9.16056004,7.01657786 9.19817795,7.41847446 L9.20623897,7.59439075 C9.20720991,7.86072788 9.15696784,8.12480556 9.05819385,8.37245571 C8.95936742,8.61885263 8.80381504,8.87717237 8.58997051,9.14699585 C8.44862573,9.32591149 8.19341159,9.58308896 7.82453661,9.91967134 C7.502137,10.2129107 7.28291398,10.421071 7.16707943,10.5417921 L7.12376659,10.5881694 C7.03332206,10.6873785 6.95314168,10.7953459 6.88443153,10.910446 L9.20602175,10.910446 L9.20601255,11.9881892 L5.1072271,11.9881892 C5.15193927,11.5803939 5.28503109,11.1943669 5.50692004,10.8300051 C5.72859965,10.4640884 6.16684158,9.98114013 6.82164583,9.37774079 C7.34899951,8.89064617 7.67149043,8.56018211 7.79142015,8.38675959 C7.95209145,8.14751353 8.03263644,7.91065244 8.03263644,7.67648811 C8.03263644,7.41817039 7.96243415,7.21903959 7.82244828,7.08003312 C7.68193924,6.94133721 7.48951059,6.87167829 7.24223436,6.87167829 C6.99840638,6.87167829 6.80378431,6.94455065 6.65951281,7.09008724 C6.51524294,7.23614294 6.43187732,7.47839391 6.40983504,7.81704947 L5.2446021,7.70178053 C5.31417758,7.0633436 5.53188823,6.60475524 5.89773324,6.32705407 C6.26389247,6.04872933 6.72166904,5.90992937 7.27116905,5.90992937 Z M2.67939203,5.90940581 L2.67939203,11.9879827 L1.51039865,11.9879827 L1.51039865,7.6147016 C1.08312583,8.01057619 0.579799719,8.30361971 4.07849741e-06,8.49414599 L4.07849741e-06,7.44107257 C0.305049713,7.34218177 0.636420387,7.15393681 0.99443236,6.87747874 C1.35233823,6.60081214 1.59773323,6.27812251 1.73082546,5.90940581 L2.67939203,5.90940581 Z M13.7665534,0 C14.4448608,0 14.9998984,0.550638465 14.9998984,1.22348941 L14.9998984,3.99886115 L13.8497092,3.99886115 L13.8497092,1.76065422 C13.8486768,1.42321139 13.5732167,1.14992978 13.2331418,1.14896215 L1.7664465,1.14896215 C1.42638786,1.14992991 1.15095843,1.42322758 1.14998311,1.76065422 L1.14999129,3.99875992 L1.02215626e-05,3.99875992 L1.02215626e-05,1.22348941 C1.02215626e-05,0.55063644 0.554733618,0 1.2330431,0 Z"></path></clipPath></defs><g transform="translate(-1317.0 -578.0)"><g clip-path="url(#i0)"><g transform="translate(1250.0 267.0)"><g transform="translate(53.0 298.0)"><g transform="translate(14.0 13.0)"><g transform="translate(3.0 1.0)"><g clip-path="url(#i1)"><polygon points="0,0 15,0 15,18 0,18 0,0" stroke="none" fill="#FFFFFF"></polygon></g></g></g></g></g></g></g></svg>