<?xml version="1.0" encoding="UTF-8"?><svg version="1.1" width="14px" height="18px" viewBox="0 0 14.0 18.0" xmlns="http://www.w3.org/2000/svg" xmlns:xlink="http://www.w3.org/1999/xlink"><defs><clipPath id="i0"><path d="M1920,0 L1920,1080 L0,1080 L0,0 L1920,0 Z"></path></clipPath><clipPath id="i1"><path d="M6.07723799,7.96369393 C6.50900655,7.96369393 6.86053493,8.31134565 6.86053493,8.74258575 C6.86053493,9.17192612 6.51091703,9.52147757 6.07723799,9.52147757 L4.8125,9.52147757 C4.38073144,9.51957784 4.02920306,9.17192612 4.02920306,8.74258575 C4.02920306,8.31324538 4.37882096,7.96369393 4.8125,7.96369393 L6.07723799,7.96369393 Z M1.59334061,0.0759894459 C2.02510917,0.0759894459 2.37663755,0.423641161 2.37663755,0.854881266 L2.37663755,4.09963061 C2.37663755,4.52897098 2.02701965,4.87852243 1.59334061,4.87852243 C1.16157205,4.87852243 0.810043668,4.53087071 0.810043668,4.09963061 L0.810043668,0.854881266 C0.811954148,0.425540897 1.16157205,0.0759894459 1.59334061,0.0759894459 Z M9.3135917,0 C9.74536026,0 10.0968886,0.347651715 10.0968886,0.778891821 L10.0968886,1.22343008 C10.0968886,1.65277045 9.74727074,2.0023219 9.3135917,2.0023219 C8.88182314,2.0023219 8.53029476,1.65467018 8.53029476,1.22343008 L8.53029476,0.778891821 C8.53220524,0.349551451 8.88182314,0 9.3135917,0 Z"></path></clipPath><clipPath id="i2"><path d="M12.7600983,7.1582058 C13.4077511,7.18290237 13.9350437,7.68253298 14,8.31704485 L14,16.9760422 C13.900655,17.4908707 13.4956332,17.8955145 12.9798035,18 L1.10616812,18 C0.531113537,17.9183113 0.076419214,17.4623747 0,16.8886544 L0,8.44812665 C0.00191048035,7.73572559 0.584606987,7.1582058 1.30103712,7.1582058 Z M12.4372271,8.71218997 L1.56468341,8.71218997 L1.56468341,16.4422164 L12.4372271,16.4422164 L12.4372271,8.71218997 Z M7.0095524,0 C9.57341703,0 11.6520197,2.06691293 11.6520197,4.61635884 L10.0873362,4.61635884 C10.0873362,2.92559367 8.70987991,1.55588391 7.0095524,1.55588391 C5.30922489,1.55588391 3.93176856,2.92559367 3.93176856,4.61635884 L2.36708515,4.61635884 C2.36708515,2.06691293 4.44568777,0 7.0095524,0 Z"></path></clipPath></defs><g transform="translate(-1320.0 -513.0)"><g clip-path="url(#i0)"><g transform="translate(1250.0 267.0)"><g transform="translate(53.0 233.0)"><g transform="translate(17.0 13.0)"><g transform="translate(1.5551310043667987 3.83556728232179)"><g clip-path="url(#i1)"><polygon points="0,0 10.8916485,0 10.8916485,12.621847 0,12.621847 0,0" stroke="none" fill="#FFFFFF"></polygon></g></g><g clip-path="url(#i2)"><polygon points="0,0 14,0 14,18 0,18 0,0" stroke="none" fill="#FFFFFF"></polygon></g></g></g></g></g></g></svg>