<?xml version="1.0" encoding="UTF-8"?><svg version="1.1" width="44px" height="46px" viewBox="0 0 44.0 46.0" xmlns="http://www.w3.org/2000/svg" xmlns:xlink="http://www.w3.org/1999/xlink"><defs><clipPath id="i0"><path d="M2924,0 L2924,5595 L0,5595 L0,0 L2924,0 Z"></path></clipPath><clipPath id="i1"><path d="M28.5590062,4.37267081 C31.2919255,4.37267081 33.6968944,6.12173913 34.5440994,8.71801242 L40.4198758,24.0496894 L40.4198758,24.0770186 C40.4198758,24.131677 40.447205,24.1590062 40.447205,24.2136646 L40.447205,24.268323 C40.447205,24.2956522 40.447205,24.2956522 40.4745342,24.3229814 L40.4745342,35.2546584 C40.4745342,37.5828132 39.2079715,39.6158466 37.3264713,40.7021333 C41.2808208,41.1959853 43.7267081,41.8790586 43.7267081,42.6335404 C43.7267081,44.14289 33.9381511,45.3664596 21.863354,45.3664596 C9.78855702,45.3664596 0,44.14289 0,42.6335404 C0,41.876218 2.46433941,41.1908428 6.44532412,40.6958766 C4.56901763,39.6088133 3.3068323,37.5787865 3.3068323,35.2546584 L3.3068323,24.2136646 C3.3068323,24.1590062 3.3068323,24.131677 3.33416149,24.0770186 L3.33416149,24.0496894 L9.20993789,8.71801242 C10.0571429,6.12173913 12.4621118,4.37267081 15.1950311,4.37267081 L28.5590062,4.37267081 Z M42.4968944,37.7142857 C42.7428571,38.7254658 42.9614907,38.9714286 44,39.2173913 C42.9614907,39.4906832 42.7428571,39.7093168 42.4968944,40.7204969 C42.2236025,39.6819876 42.0049689,39.463354 40.9937888,39.2173913 C42.0049689,38.9440994 42.2509317,38.7254658 42.4968944,37.7142857 Z M17.026087,25.1428571 L4.91925466,25.1428571 L4.91925466,35.2546584 C4.91925466,37.8236025 6.99627329,39.9006211 9.56521739,39.9006211 L34.1614907,39.9006211 C36.7304348,39.9006211 38.8074534,37.8236025 38.8074534,35.2546584 L38.8074534,25.1428571 L26.7006211,25.1428571 C26.3180124,27.4658385 24.2956522,29.242236 21.863354,29.242236 C19.4310559,29.242236 17.4086957,27.4658385 17.026087,25.1428571 Z M26.7826087,30.6086957 L26.7826087,30.8273292 L21.426087,37.3863354 L20.4149068,36.4024845 L19.4037267,37.3863354 L19.4037267,35.4186335 L25.6621118,31.4012422 L18.7478261,34.7627329 L16.9440994,33.0956522 L16.9440994,32.8770186 L26.7826087,30.6086957 Z M28.531677,6.01242236 L15.1950311,6.01242236 C13.1726708,6.01242236 11.3689441,7.29689441 10.7677019,9.26459627 C10.7403727,9.26459627 10.7403727,9.29192547 10.7403727,9.29192547 L5.30186335,23.4757764 L17.7639752,23.4757764 C18.2285714,23.4757764 18.5838509,23.8310559 18.5838509,24.2956522 C18.5838509,26.0993789 20.0596273,27.5751553 21.863354,27.5751553 C23.6670807,27.5751553 25.1428571,26.0993789 25.1428571,24.2956522 C25.1428571,23.8310559 25.4981366,23.4757764 25.9627329,23.4757764 L38.4521739,23.4757764 L33.0136646,9.26459627 C32.9863354,9.26459627 32.9863354,9.23726708 32.9863354,9.23726708 C32.357764,7.29689441 30.5540373,6.01242236 28.531677,6.01242236 Z M28.531677,7.92546584 C29.7341615,7.92546584 30.7726708,8.69068323 31.1552795,9.83850932 L31.1826087,9.8931677 L35.6645963,21.5900621 L23.2298137,21.5900621 L23.2298137,24.3229814 C23.2298137,25.0881988 22.6285714,25.689441 21.863354,25.689441 C21.0981366,25.689441 20.4968944,25.0881988 20.4968944,24.3229814 L20.4968944,21.5900621 L8.0621118,21.5900621 L12.5440994,9.8931677 L12.5714286,9.83850932 C12.9540373,8.69068323 13.9925466,7.92546584 15.1950311,7.92546584 L28.531677,7.92546584 Z M1.58509317,14.1018634 C2.04968944,14.1018634 2.40496894,14.4571429 2.40496894,14.9217391 C2.40496894,15.3863354 2.04968944,15.7416149 1.58509317,15.7416149 C1.12049689,15.7416149 0.765217391,15.3863354 0.765217391,14.9217391 C0.765217391,14.484472 1.14782609,14.1018634 1.58509317,14.1018634 Z M3.36149068,10.084472 C3.68944099,11.4236025 3.99006211,11.6968944 5.32919255,12.0521739 C3.99006211,12.4074534 3.71677019,12.6807453 3.36149068,14.0198758 C3.00621118,12.6807453 2.73291925,12.4074534 1.39378882,12.0521739 C2.73291925,11.6968944 3.00621118,11.3962733 3.36149068,10.084472 Z M36.9217391,6.14906832 C37.1130435,6.9689441 37.3043478,7.13291925 38.1242236,7.3515528 C37.3043478,7.57018634 37.1403727,7.73416149 36.9217391,8.55403727 C36.7031056,7.73416149 36.5391304,7.57018634 35.7192547,7.3515528 C36.5391304,7.13291925 36.7031056,6.9689441 36.9217391,6.14906832 Z M38.5068323,0 C39.0534161,2.10434783 39.5180124,2.5689441 41.6496894,3.14285714 C39.5180124,3.68944099 39.0807453,4.15403727 38.5068323,6.28571429 C37.9602484,4.15403727 37.4956522,3.71677019 35.3639752,3.14285714 C37.4956522,2.59627329 37.9329193,2.13167702 38.5068323,0 Z"></path></clipPath><linearGradient id="i2" x1="22px" y1="5.59184788e-31px" x2="22px" y2="45.3664596px" gradientUnits="userSpaceOnUse"><stop stop-color="#DEEBFC" offset="0%"></stop><stop stop-color="#739AD2" offset="100%"></stop></linearGradient></defs><g transform="translate(-1484.0 -1517.0)"><g clip-path="url(#i0)"><g transform="translate(1484.0 1517.0)"><g clip-path="url(#i1)"><polygon points="0,0 44,0 44,45.3664596 0,45.3664596 0,0" stroke="none" fill="url(#i2)"></polygon></g></g></g></g></svg>