<?xml version="1.0" encoding="UTF-8"?><svg version="1.1" width="18px" height="18px" viewBox="0 0 18.0 18.0" xmlns="http://www.w3.org/2000/svg" xmlns:xlink="http://www.w3.org/1999/xlink"><defs><clipPath id="i0"><path d="M1920,0 L1920,1080 L0,1080 L0,0 L1920,0 Z"></path></clipPath><clipPath id="i1"><path d="M9,0 C13.9705627,0 18,4.02943725 18,9 C18,13.9705627 13.9705627,18 9,18 C4.02943725,18 0,13.9705627 0,9 C0,4.02943725 4.02943725,0 9,0 Z M9,1 C4.581722,1 1,4.581722 1,9 C1,13.418278 4.581722,17 9,17 C13.418278,17 17,13.418278 17,9 C17,4.581722 13.418278,1 9,1 Z M9.00627943,9 C9.94254317,9 10.922135,9.33433967 11.6939027,9.91730808 C12.0838556,10.2118644 12.3954537,10.5494995 12.6200691,10.9208577 C12.8721758,11.3376687 13,11.7727725 13,12.2141042 C13,12.6546958 12.8704301,13.0215995 12.6148948,13.3046494 C11.9779843,14.0101239 10.7081821,14.004636 9.36365463,13.9989806 L8.64887912,13.9989667 C8.52825118,13.9994833 8.4082135,14 8.28918053,14 C7.07606907,14 5.96663108,13.9469089 5.38477865,13.3024292 C5.12945683,13.0196166 5,12.653453 5,12.2141042 C5,11.7724373 5.12869074,11.3369984 5.38250549,10.9198384 C5.60828885,10.5487734 5.92138148,10.2112918 6.31309262,9.91676348 C7.08798744,9.33415814 8.06961381,9 9.00627943,9 Z M9,4 C10.1028125,4 11,4.8972 11,6 C11,7.1028 10.1028125,8 9,8 C7.8972,8 7,7.1028 7,6 C7,4.8972 7.8972,4 9,4 Z"></path></clipPath></defs><g transform="translate(-1887.0 -19.0)"><g clip-path="url(#i0)"><g transform="translate(1887.0 19.0)"><g clip-path="url(#i1)"><polygon points="0,0 18,0 18,18 0,18 0,0" stroke="none" fill="#77C5D6"></polygon></g></g></g></g></svg>